#!OML:ASF F:\VICON\USERDATA\INSTALL\rory3\rory3.ASF
:FULLY-SPECIFIED
:DEGREES
224
root -0.133152 17.8083 -20.601 4.71675 2.35863 7.64171
lowerback 6.54604 0.23255 -10.6514
upperback 0.0180059 -0.440835 1.63356
thorax -3.58074 -0.0165714 7.7868
lowerneck -15.2783 -5.39336 -14.4457
upperneck 23.7404 -5.67118 7.32238
head 10.828 -3.05211 4.27274
rclavicle -5.96354e-016 4.77083e-015
rhumerus -36.4226 -18.267 -71.5389
rradius 29.9167
rwrist -12.4146
rhand -12.2333 19.3025
rfingers 7.12502
rthumb 13.8321 -10.2176
lclavicle -5.96354e-016 4.77083e-015
lhumerus -31.5877 -1.81194 81.2285
lradius 39.8742
lwrist -5.14552
lhand 0.158828 32.6676
lfingers 7.12502
lthumb 25.7425 60.9464
rfemur -35.8084 -0.038371 8.02633
rtibia 18.5468
rfoot -10.664 -9.97653
rtoes 2.79816
lfemur 7.05014 -3.61216 -31.5404
ltibia 14.7131
lfoot -17.3935 0.315423
ltoes -3.11696
225
root -0.144318 17.7922 -20.4456 4.68824 2.31265 7.62305
lowerback 6.57614 0.248713 -10.7028
upperback 0.0425579 -0.423617 1.68516
thorax -3.5748 -0.00800692 7.87084
lowerneck -15.4572 -5.44437 -14.4659
upperneck 23.922 -5.70724 7.28521
head 10.9351 -3.07514 4.25856
rclavicle 1.56046e-014 -1.43125e-014
rhumerus -36.6389 -18.8219 -71.1324
rradius 29.633
rwrist -12.2819
rhand -12.2914 19.243
rfingers 7.12502
rthumb 13.7762 -10.2809
lclavicle 1.56046e-014 -1.43125e-014
lhumerus -31.5605 -1.7376 81.3334
lradius 39.5862
lwrist -5.23764
lhand 0.0273507 32.6178
lfingers 7.12502
lthumb 25.6166 60.9148
rfemur -36.0934 0.0501195 8.11096
rtibia 19.3983
rfoot -10.4332 -10.2135
rtoes 5.04641
lfemur 7.86406 -3.87231 -31.5149
ltibia 14.2988
lfoot -17.2699 0.230543
ltoes -4.10354
226
root -0.152584 17.7721 -20.2803 4.53135 2.28293 7.65722
lowerback 6.71779 0.301258 -10.701
upperback 0.069391 -0.369218 1.66584
thorax -3.63812 0.0213878 7.84558
lowerneck -15.5229 -5.46783 -14.564
upperneck 24.024 -5.75058 7.4444
head 10.9994 -3.08647 4.32972
rclavicle -9.14409e-015 -6.36111e-015
rhumerus -37.0135 -19.4105 -70.7591
rradius 29.5044
rwrist -12.2434
rhand -11.9098 18.6207
rfingers 7.12502
rthumb 14.144 -10.8779
lclavicle -9.14409e-015 -6.36111e-015
lhumerus -31.5739 -1.58844 81.3488
lradius 39.2443
lwrist -5.55257
lhand -0.0259257 32.3331
lfingers 7.12502
lthumb 25.5655 60.6374
rfemur -36.1801 -0.28218 8.40366
rtibia 20.2989
rfoot -10.1925 -10.079
rtoes 5.91884
lfemur 8.97036 -4.11371 -31.6004
ltibia 13.8153
lfoot -17.0087 0.441627
ltoes -5.95146
227
root -0.170631 17.7517 -20.1177 4.42484 2.33922 7.52552
lowerback 6.87308 0.299656 -10.6387
upperback 0.141407 -0.378262 1.7328
thorax -3.64707 0.013786 7.88454
lowerneck -15.8778 -5.44676 -14.5398
upperneck 24.1225 -5.68193 7.47021
head 11.0963 -3.04534 4.34428
rclavicle -1.68967e-015 2.70347e-014
rhumerus -37.1497 -19.933 -70.4579
rradius 29.2352
rwrist -12.084
rhand -11.5564 18.3684
rfingers 7.12502
rthumb 14.4845 -11.106
lclavicle -1.68967e-015 2.70347e-014
lhumerus -31.3388 -1.27159 81.3138
lradius 38.6384
lwrist -5.75104
lhand -0.118449 31.9412
lfingers 7.12502
lthumb 25.4769 60.2582
rfemur -36.2818 -0.179939 8.73928
rtibia 21.2559
rfoot -10.2387 -10.3267
rtoes 6.78705
lfemur 10.0263 -4.29833 -31.4082
ltibia 13.2764
lfoot -16.6115 0.598897
ltoes -8.19799
228
root -0.184565 17.7355 -19.9372 4.29408 2.48384 7.41349
lowerback 6.88628 0.21428 -10.6267
upperback 0.200462 -0.484955 1.86174
thorax -3.56779 -0.0455808 8.0272
lowerneck -16.2005 -5.36936 -14.4863
upperneck 24.3315 -5.50739 7.3372
head 11.2101 -2.97532 4.31368
rclavicle 6.36111e-015 0
rhumerus -37.1671 -20.5279 -69.9162
rradius 28.4849
rwrist -11.5339
rhand -11.6592 18.6356
rfingers 7.12502
rthumb 14.3854 -10.846
lclavicle 6.36111e-015 0
lhumerus -31.5223 -0.989656 81.4216
lradius 38.3909
lwrist -5.82959
lhand -0.0771841 32.4938
lfingers 7.12502
lthumb 25.5164 60.8051
rfemur -36.228 -0.517265 9.20889
rtibia 22.1844
rfoot -10.3092 -10.2116
rtoes 6.36309
lfemur 11.103 -4.41927 -31.233
ltibia 12.7873
lfoot -16.221 0.593061
ltoes -10.2312
229
root -0.197968 17.7208 -19.7605 4.28586 2.55451 7.57499
lowerback 6.85677 0.175812 -10.9077
upperback 0.0808307 -0.558987 1.91114
thorax -3.66003 -0.0661772 8.25092
lowerneck -15.953 -5.3106 -14.4907
upperneck 24.3745 -5.44063 7.25298
head 11.1673 -2.96108 4.2966
rclavicle -1.28216e-014 7.95139e-015
rhumerus -37.5425 -21.0538 -69.271
rradius 27.956
rwrist -11.0995
rhand -11.9036 18.4006
rfingers 7.12502
rthumb 14.1499 -11.0976
lclavicle -1.28216e-014 7.95139e-015
lhumerus -32 -0.897303 81.6321
lradius 38.2227
lwrist -6.07398
lhand -0.172215 33.354
lfingers 7.12502
lthumb 25.4254 61.6783
rfemur -36.1879 -1.07066 9.47142
rtibia 22.9
rfoot -10.317 -9.85352
rtoes 5.97782
lfemur 11.8325 -4.52266 -31.37
ltibia 12.6533
lfoot -15.8967 0.464431
ltoes -12.0452
230
root -0.216542 17.7104 -19.5884 4.30896 2.64725 7.52548
lowerback 6.81166 0.153099 -10.9823
upperback 0.0361948 -0.589065 1.9901
thorax -3.67412 -0.0761474 8.38251
lowerneck -15.7908 -5.34043 -14.4685
upperneck 24.2724 -5.49491 7.1924
head 11.1019 -2.99138 4.26088
rclavicle 7.95139e-016 2.3059e-014
rhumerus -37.925 -21.3604 -68.9244
rradius 27.9495
rwrist -11.1416
rhand -12.0702 17.9836
rfingers 7.12502
rthumb 13.9894 -11.5257
lclavicle 7.95139e-016 2.3059e-014
lhumerus -31.981 -0.664893 81.7378
lradius 37.5112
lwrist -6.5198
lhand -0.506654 33.0829
lfingers 7.12502
lthumb 25.105 61.4525
rfemur -36.1121 -1.31656 9.85597
rtibia 23.6126
rfoot -10.4742 -9.60688
rtoes 6.81865
lfemur 12.5812 -4.66836 -31.2372
ltibia 12.3646
lfoot -15.352 0.230051
ltoes -13.4248
231
root -0.241481 17.7158 -19.4061 4.32009 2.73795 6.97366
lowerback 6.68071 0.0775002 -10.6085
upperback 0.100206 -0.63414 2.2173
thorax -3.52224 -0.115299 8.41444
lowerneck -16.0671 -5.34165 -14.3592
upperneck 24.2951 -5.44931 7.06351
head 11.1515 -2.97112 4.19844
rclavicle -4.67144e-015 2.38542e-014
rhumerus -37.9104 -21.8984 -68.5715
rradius 27.5273
rwrist -10.9063
rhand -11.9833 17.9932
rfingers 7.12502
rthumb 14.0731 -11.5103
lclavicle -4.67144e-015 2.38542e-014
lhumerus -31.9519 -0.0373732 81.6493
lradius 36.9572
lwrist -6.91706
lhand -0.588144 32.1998
lfingers 7.12502
lthumb 25.0269 60.5803
rfemur -35.8354 -0.969918 10.6295
rtibia 24.1506
rfoot -10.5064 -9.83356
rtoes 6.42783
lfemur 13.1932 -4.87412 -30.5235
ltibia 12.2522
lfoot -14.6888 -0.0437323
ltoes -13.5022
232
root -0.278375 17.7445 -19.1761 4.01652 4.23422 6.80184
lowerback 6.67933 -0.434245 -10.6385
upperback 0.186707 -1.30778 2.42291
thorax -3.27298 -0.468296 8.71317
lowerneck -16.1819 -5.27669 -14.3143
upperneck 24.4567 -5.33699 6.98833
head 11.2172 -2.92672 4.18254
rclavicle 3.97569e-015 2.22639e-014
rhumerus -37.9526 -23.0096 -67.6861
rradius 26.352
rwrist -9.8433
rhand -11.8152 18.2904
rfingers 7.12502
rthumb 14.2351 -11.2018
lclavicle 3.97569e-015 2.22639e-014
lhumerus -32.4276 0.575667 81.5683
lradius 36.7839
lwrist -7.10044
lhand -0.377533 31.7921
lfingers 7.12502
lthumb 25.2287 60.1443
rfemur -34.5131 -1.02771 10.699
rtibia 24.5029
rfoot -10.6751 -10.7542
rtoes 7.31813
lfemur 14.3189 -5.79966 -29.904
ltibia 12.3019
lfoot -14.1232 -1.04742
ltoes -12.7808
233
root -0.304672 17.7675 -18.9764 3.94297 4.7172 6.4721
lowerback 6.6386 -0.598921 -10.4972
upperback 0.0554546 -1.51085 2.61664
thorax -3.34108 -0.560479 8.8608
lowerneck -15.9407 -5.22392 -14.4173
upperneck 24.6394 -5.28789 7.02483
head 11.2374 -2.91861 4.22809
rclavicle -1.39149e-014 4.77083e-015
rhumerus -38.3532 -23.9511 -66.7353
rradius 25.478
rwrist -8.97171
rhand -11.6666 18.3227
rfingers 7.12502
rthumb 14.3783 -11.1593
lclavicle -1.39149e-014 4.77083e-015
lhumerus -32.848 0.987804 81.5857
lradius 36.2689
lwrist -7.30478
lhand -0.074825 31.9651
lfingers 7.12502
lthumb 25.5187 60.2761
rfemur -33.8856 -0.65703 11.0244
rtibia 24.6815
rfoot -9.62255 -10.9713
rtoes 10.064
lfemur 14.9163 -6.30704 -29.3969
ltibia 12.5082
lfoot -13.4192 -1.44193
ltoes -13.1555
234
root -0.323204 17.7861 -18.7896 3.9972 4.59004 6.10614
lowerback 6.60257 -0.578737 -10.2228
upperback -0.139279 -1.46157 2.74972
thorax -3.54162 -0.518585 8.84574
lowerneck -15.7785 -5.20542 -14.5452
upperneck 24.9321 -5.27563 7.07255
head 11.3208 -2.92968 4.27829
rclavicle 1.82882e-014 1.59028e-015
rhumerus -38.9145 -24.3889 -66.1405
rradius 25.2684
rwrist -8.6561
rhand -11.5864 18.0147
rfingers 7.12502
rthumb 14.4556 -11.4618
lclavicle 1.82882e-014 1.59028e-015
lhumerus -33.1383 1.45503 81.558
lradius 35.5765
lwrist -7.61888
lhand 0.271933 32.2665
lfingers 7.12502
lthumb 25.8508 60.5295
rfemur -33.6464 -0.270905 11.5232
rtibia 24.8186
rfoot -7.23426 -10.8244
rtoes 10.3705
lfemur 15.2422 -6.5704 -29.0202
ltibia 12.7521
lfoot -12.5022 -1.54125
ltoes -14.3175
